<svg xmlns="http://www.w3.org/2000/svg" xmlns:xlink="http://www.w3.org/1999/xlink" width="500" zoomAndPan="magnify" viewBox="0 0 375 374.999991" height="500" preserveAspectRatio="xMidYMid meet" version="1.0"><defs><clipPath id="id1"><path d="M 165.191406 162.5 L 209.441406 162.5 L 209.441406 206.75 L 165.191406 206.75 Z M 165.191406 162.5 " clip-rule="nonzero"/></clipPath><clipPath id="id2"><path d="M 184.09375 177 L 215.59375 177 L 215.59375 191.871094 L 184.09375 191.871094 Z M 184.09375 177 " clip-rule="nonzero"/></clipPath></defs><g clip-path="url(#id1)"><path fill="#000000" d="M 199.539062 184.605469 C 199.539062 191.359375 194.0625 196.824219 187.316406 196.824219 C 180.574219 196.824219 175.097656 191.351562 175.097656 184.605469 C 175.097656 177.863281 180.574219 172.386719 187.316406 172.386719 C 194.0625 172.386719 199.539062 177.851562 199.539062 184.605469 Z M 188.773438 168.132812 L 188.773438 163.957031 C 188.773438 163.152344 188.121094 162.5 187.316406 162.5 C 186.515625 162.5 185.863281 163.152344 185.863281 163.957031 L 185.863281 168.132812 C 185.863281 168.9375 186.515625 169.589844 187.316406 169.589844 C 188.121094 169.589844 188.773438 168.9375 188.773438 168.132812 Z M 200.011719 173.992188 L 202.96875 171.035156 C 203.539062 170.464844 203.539062 169.542969 202.96875 168.984375 C 202.402344 168.414062 201.476562 168.414062 200.917969 168.984375 L 197.960938 171.941406 C 197.390625 172.507812 197.390625 173.433594 197.960938 173.992188 C 198.519531 174.5625 199.445312 174.5625 200.011719 173.992188 Z M 203.808594 186.082031 L 207.988281 186.082031 C 208.789062 186.082031 209.441406 185.425781 209.441406 184.625 C 209.441406 183.824219 208.789062 183.167969 207.988281 183.167969 L 203.808594 183.167969 C 203.007812 183.167969 202.355469 183.824219 202.355469 184.625 C 202.355469 185.425781 203.007812 186.082031 203.808594 186.082031 Z M 197.953125 197.320312 L 200.910156 200.277344 C 201.476562 200.84375 202.402344 200.84375 202.960938 200.277344 C 203.53125 199.707031 203.53125 198.785156 202.960938 198.222656 L 200.003906 195.269531 C 199.433594 194.699219 198.511719 194.699219 197.953125 195.269531 C 197.382812 195.828125 197.382812 196.75 197.953125 197.320312 Z M 185.863281 201.117188 L 185.863281 205.292969 C 185.863281 206.097656 186.515625 206.75 187.316406 206.75 C 188.121094 206.75 188.773438 206.097656 188.773438 205.292969 L 188.773438 201.117188 C 188.773438 200.3125 188.121094 199.660156 187.316406 199.660156 C 186.515625 199.660156 185.863281 200.3125 185.863281 201.117188 Z M 174.625 195.257812 L 171.667969 198.214844 C 171.097656 198.785156 171.097656 199.707031 171.667969 200.265625 C 172.234375 200.835938 173.160156 200.835938 173.71875 200.265625 L 176.675781 197.308594 C 177.246094 196.742188 177.246094 195.816406 176.675781 195.257812 C 176.117188 194.6875 175.191406 194.6875 174.625 195.257812 Z M 170.828125 183.167969 L 166.648438 183.167969 C 165.847656 183.167969 165.191406 183.824219 165.191406 184.625 C 165.191406 185.425781 165.847656 186.082031 166.648438 186.082031 L 170.828125 186.082031 C 171.628906 186.082031 172.28125 185.425781 172.28125 184.625 C 172.28125 183.824219 171.628906 183.167969 170.828125 183.167969 Z M 176.683594 171.929688 L 173.726562 168.984375 C 173.160156 168.414062 172.234375 168.414062 171.675781 168.984375 C 171.105469 169.550781 171.105469 170.476562 171.675781 171.035156 L 174.632812 173.992188 C 175.203125 174.5625 176.125 174.5625 176.683594 173.992188 C 177.253906 173.421875 177.253906 172.5 176.683594 171.929688 Z M 188.773438 168.132812 L 188.773438 163.957031 C 188.773438 163.152344 188.121094 162.5 187.316406 162.5 C 186.515625 162.5 185.863281 163.152344 185.863281 163.957031 L 185.863281 168.132812 C 185.863281 168.9375 186.515625 169.589844 187.316406 169.589844 C 188.121094 169.589844 188.773438 168.9375 188.773438 168.132812 Z M 188.773438 168.132812 " fill-opacity="1" fill-rule="nonzero"/></g><g clip-path="url(#id2)"><path fill="#302f2f" d="M 211.28125 182.089844 L 211.234375 182.089844 C 211.234375 180.777344 210.097656 179.625 208.496094 179.40625 C 207.746094 179.300781 207.03125 179.40625 206.351562 179.726562 C 206.007812 178.441406 204.757812 177.398438 203.105469 177.167969 C 201.035156 176.886719 199.089844 177.988281 198.59375 179.65625 C 198.542969 179.679688 198.488281 179.699219 198.4375 179.722656 C 198.09375 178.4375 196.84375 177.394531 195.191406 177.167969 C 193.085938 176.882812 191.101562 178.027344 190.652344 179.742188 C 189.082031 179.78125 187.722656 180.734375 187.460938 182.074219 C 187.410156 182.332031 187.40625 182.589844 187.441406 182.851562 C 185.953125 183.363281 184.804688 184.484375 184.527344 185.90625 C 184.097656 188.085938 185.871094 190.140625 188.484375 190.496094 C 189.621094 190.65625 190.703125 190.484375 191.726562 189.980469 C 192.585938 190.875 193.636719 191.398438 194.886719 191.550781 C 196.757812 191.804688 198.558594 191.15625 199.648438 189.988281 C 200.503906 190.878906 201.554688 191.398438 202.796875 191.550781 C 204.996094 191.851562 207.097656 190.902344 208.0625 189.332031 C 208.597656 189.601562 209.160156 189.777344 209.757812 189.859375 C 212.328125 190.214844 214.761719 188.753906 215.179688 186.605469 C 215.601562 184.453125 213.855469 182.441406 211.28125 182.089844 Z M 211.28125 182.089844 " fill-opacity="1" fill-rule="nonzero"/></g></svg>